<svg width="48" height="48" viewBox="0 0 48 48" fill="none" xmlns="http://www.w3.org/2000/svg">
<path d="M39 6H9C8.20435 6 7.44129 6.31607 6.87868 6.87868C6.31607 7.44129 6 8.20435 6 9V39C6 39.7956 6.31607 40.5587 6.87868 41.1213C7.44129 41.6839 8.20435 42 9 42H39C39.7956 42 40.5587 41.6839 41.1213 41.1213C41.6839 40.5587 42 39.7956 42 39V9C42 8.20435 41.6839 7.44129 41.1213 6.87868C40.5587 6.31607 39.7956 6 39 6ZM36 34.5H12C11.6022 34.5 11.2206 34.342 10.9393 34.0607C10.658 33.7794 10.5 33.3978 10.5 33C10.5 32.6022 10.658 32.2206 10.9393 31.9393C11.2206 31.658 11.6022 31.5 12 31.5H36C36.3978 31.5 36.7794 31.658 37.0607 31.9393C37.342 32.2206 37.5 32.6022 37.5 33C37.5 33.3978 37.342 33.7794 37.0607 34.0607C36.7794 34.342 36.3978 34.5 36 34.5ZM36 25.5H12C11.6022 25.5 11.2206 25.342 10.9393 25.0607C10.658 24.7794 10.5 24.3978 10.5 24C10.5 23.6022 10.658 23.2206 10.9393 22.9393C11.2206 22.658 11.6022 22.5 12 22.5H36C36.3978 22.5 36.7794 22.658 37.0607 22.9393C37.342 23.2206 37.5 23.6022 37.5 24C37.5 24.3978 37.342 24.7794 37.0607 25.0607C36.7794 25.342 36.3978 25.5 36 25.5ZM36 16.5H12C11.6022 16.5 11.2206 16.342 10.9393 16.0607C10.658 15.7794 10.5 15.3978 10.5 15C10.5 14.6022 10.658 14.2206 10.9393 13.9393C11.2206 13.658 11.6022 13.5 12 13.5H36C36.3978 13.5 36.7794 13.658 37.0607 13.9393C37.342 14.2206 37.5 14.6022 37.5 15C37.5 15.3978 37.342 15.7794 37.0607 16.0607C36.7794 16.342 36.3978 16.5 36 16.5Z" fill="#72A276"/>
</svg>
