<svg width="24" height="24" viewBox="0 0 24 24" fill="none" xmlns="http://www.w3.org/2000/svg">
<path d="M22.2129 5.65599C21.4494 5.99368 20.6398 6.21546 19.8109 6.31399C20.6839 5.79112 21.3372 4.96873 21.6489 3.99999C20.8289 4.48799 19.9299 4.82999 18.9939 5.01499C18.3645 4.34157 17.5302 3.89495 16.6208 3.74457C15.7114 3.59419 14.7778 3.74848 13.9651 4.18344C13.1525 4.6184 12.5063 5.30967 12.127 6.14978C11.7477 6.98989 11.6566 7.93177 11.8679 8.82899C10.2048 8.74578 8.57785 8.31371 7.09262 7.56085C5.60739 6.80799 4.29712 5.75116 3.24688 4.45899C2.87517 5.09744 2.67984 5.82321 2.68088 6.56199C2.68088 8.01199 3.41988 9.29299 4.54088 10.043C3.8769 10.022 3.22753 9.84273 2.64688 9.51999V9.57099C2.64685 10.5369 2.98091 11.473 3.59241 12.2207C4.20391 12.9683 5.05519 13.4814 6.00188 13.673C5.38552 13.8402 4.73917 13.8648 4.11188 13.745C4.3788 14.5764 4.89909 15.3035 5.59988 15.8244C6.30066 16.3453 7.14684 16.634 8.01988 16.65C7.15224 17.3314 6.15877 17.8352 5.09629 18.1324C4.03381 18.4295 2.92317 18.5144 1.82788 18.382C3.7396 19.6114 5.96499 20.2641 8.23788 20.262C15.9319 20.262 20.1379 13.889 20.1379 8.36199C20.1379 8.18199 20.1339 7.99999 20.1259 7.82099C20.9443 7.22935 21.6507 6.49655 22.2119 5.65699" fill="#72A276"/>
</svg>
